<?xml version="1.0" encoding="utf-8"?>
<!-- Generator: Adobe Illustrator 28.0.0, SVG Export Plug-In . SVG Version: 6.00 Build 0)  -->
<svg version="1.1" id="Layer_1" xmlns="http://www.w3.org/2000/svg" xmlns:xlink="http://www.w3.org/1999/xlink" x="0px" y="0px"
	 viewBox="0 0 160 134.1" style="enable-background:new 0 0 160 134.1;" xml:space="preserve">
<style type="text/css">
	.st0{fill:none;stroke:#000000;stroke-width:8;stroke-miterlimit:10;}
	.st1{fill:#CCA354;stroke:#000000;stroke-width:8;stroke-miterlimit:10;}
</style>
<path class="st0" d="M20.3,134V20c0-11,8.9-20,20-20h77.4c11,0,20,9,20,20v114H20.3z"/>
<line class="st0" x1="20.3" y1="82.6" x2="137.7" y2="82.6"/>
<path class="st1" d="M119.7,130.5V75.8c0-7.6,6.2-13.8,13.8-13.8h7c8.4,0,15.2,6.8,15.2,15.2v53.4c0,1.9-1.5,3.5-3.5,3.5h-29.1
	C121.3,134,119.7,132.5,119.7,130.5z"/>
<path class="st1" d="M4,130.5V76.1C4,68.3,10.3,62,18.1,62h3c8.6,0,15.5,6.9,15.5,15.5v53c0,2-1.6,3.5-3.5,3.5H7.5
	C5.6,134,4,132.4,4,130.5z"/>
</svg>
